<?xml version="1.0" encoding="utf-8"?>
<!-- Generator: Adobe Illustrator 16.0.0, SVG Export Plug-In . SVG Version: 6.00 Build 0)  -->
<!DOCTYPE svg PUBLIC "-//W3C//DTD SVG 1.1//EN" "http://www.w3.org/Graphics/SVG/1.1/DTD/svg11.dtd">
<svg version="1.1" id="Layer_1" xmlns="http://www.w3.org/2000/svg" xmlns:xlink="http://www.w3.org/1999/xlink" x="0px" y="0px"
	 width="153.75px" height="154.5px" viewBox="0 0 153.75 154.5" enable-background="new 0 0 153.75 154.5" xml:space="preserve">
<g>
	<path fill="#765DA8" d="M77.035,23.06c30.069,0,54.447,24.376,54.447,54.447c0,30.07-24.378,54.448-54.447,54.448
		c-30.072,0-54.448-24.378-54.448-54.448C22.587,47.436,46.963,23.06,77.035,23.06 M77.035,4.06
		c-40.5,0-73.448,32.948-73.448,73.447s32.949,73.448,73.448,73.448c40.499,0,73.447-32.949,73.447-73.448S117.534,4.06,77.035,4.06
		L77.035,4.06z"/>
</g>
<circle fill="none" cx="76.676" cy="76.61" r="57.646"/>
<text transform="matrix(0.1792 -0.9838 0.9838 0.1792 18.9287 71.9209)"><tspan x="0" y="0" fill="#FFFFFF" font-family="'Roboto-Bold'" font-size="13.2675">M</tspan><tspan x="11.252" y="0.092" fill="#FFFFFF" font-family="'Roboto-Bold'" font-size="13.2675" rotate="9.776">U</tspan><tspan x="19.577" y="1.56" fill="#FFFFFF" font-family="'Roboto-Bold'" font-size="13.2675" rotate="17.454">L</tspan><tspan x="26.189" y="3.587" fill="#FFFFFF" font-family="'Roboto-Bold'" font-size="13.2675" rotate="24.845">T</tspan><tspan x="33.39" y="7.028" fill="#FFFFFF" font-family="'Roboto-Bold'" font-size="13.2675" rotate="30.608">I</tspan><tspan x="36.652" y="8.65" fill="#FFFFFF" font-family="'Roboto-Bold'" font-size="13.2675" rotate="38.005">M</tspan><tspan x="45.438" y="15.689" fill="#FFFFFF" font-family="'Roboto-Bold'" font-size="13.2675" rotate="47.072">E</tspan><tspan x="50.389" y="20.928" fill="#FFFFFF" font-family="'Roboto-Bold'" font-size="13.2675" rotate="54.792">D</tspan><tspan x="55.123" y="27.827" fill="#FFFFFF" font-family="'Roboto-Bold'" font-size="13.2675" rotate="60.772">I</tspan><tspan x="57.041" y="30.952" fill="#FFFFFF" font-family="'Roboto-Bold'" font-size="13.2675" rotate="66.958">A</tspan><tspan x="60.326" y="39.016" fill="#FFFFFF" font-family="'Roboto-Bold'" font-size="13.2675" rotate="72.859"> </tspan><tspan x="61.368" y="41.921" fill="#FFFFFF" font-family="'Roboto-Bold'" font-size="13.2675" rotate="78.52">P</tspan><tspan x="63.03" y="50.023" fill="#FFFFFF" font-family="'Roboto-Bold'" font-size="13.2675" rotate="86.563">R</tspan><tspan x="63.569" y="58.174" fill="#FFFFFF" font-family="'Roboto-Bold'" font-size="13.2675" rotate="94.999">O</tspan><tspan x="62.751" y="67.008" fill="#FFFFFF" font-family="'Roboto-Bold'" font-size="13.2675" rotate="102.926">F</tspan><tspan x="61.213" y="73.815" fill="#FFFFFF" font-family="'Roboto-Bold'" font-size="13.2675" rotate="109.989">E</tspan><tspan x="58.793" y="80.587" fill="#FFFFFF" font-family="'Roboto-Bold'" font-size="13.2675" rotate="117.476">S</tspan><tspan x="55.167" y="87.597" fill="#FFFFFF" font-family="'Roboto-Bold'" font-size="13.2675" rotate="125.273">S</tspan><tspan x="50.505" y="94.021" fill="#FFFFFF" font-family="'Roboto-Bold'" font-size="13.2675" rotate="130.994">I</tspan><tspan x="48.234" y="96.87" fill="#FFFFFF" font-family="'Roboto-Bold'" font-size="13.2675" rotate="137.198">O</tspan><tspan x="41.783" y="102.892" fill="#FFFFFF" font-family="'Roboto-Bold'" font-size="13.2675" rotate="146.051">N</tspan><tspan x="34.272" y="107.958" fill="#FFFFFF" font-family="'Roboto-Bold'" font-size="13.2675" rotate="154.87">A</tspan><tspan x="26.437" y="111.59" fill="#FFFFFF" font-family="'Roboto-Bold'" font-size="13.2675" rotate="162.63">L</tspan></text>
<circle fill="none" cx="76.675" cy="76.61" r="57.646"/>
<text transform="matrix(0.2132 0.977 -0.977 0.2132 8.0293 85.7031)"><tspan x="0" y="0" fill="#FFFFFF" font-family="'Roboto-Bold'" font-size="13.2675">M</tspan><tspan x="13.016" y="-0.24" fill="#FFFFFF" font-family="'Roboto-Bold'" font-size="13.2675" rotate="-9.66">U</tspan><tspan x="22.713" y="-2.018" fill="#FFFFFF" font-family="'Roboto-Bold'" font-size="13.2675" rotate="-17.231">L</tspan><tspan x="30.567" y="-4.49" fill="#FFFFFF" font-family="'Roboto-Bold'" font-size="13.2675" rotate="-24.484">T</tspan><tspan x="38.743" y="-8.379" fill="#FFFFFF" font-family="'Roboto-Bold'" font-size="13.2675" rotate="-30.182">I</tspan><tspan x="43.098" y="-10.705" fill="#FFFFFF" font-family="'Roboto-Bold'" font-size="13.2675" rotate="-37.441">M</tspan><tspan x="53.222" y="-18.797" fill="#FFFFFF" font-family="'Roboto-Bold'" font-size="13.2675" rotate="-46.448">E</tspan><tspan x="59.097" y="-25.022" fill="#FFFFFF" font-family="'Roboto-Bold'" font-size="13.2675" rotate="-54.037">D</tspan><tspan x="64.544" y="-32.817" fill="#FFFFFF" font-family="'Roboto-Bold'" font-size="13.2675" rotate="-59.994">I</tspan><tspan x="66.993" y="-36.885" fill="#FFFFFF" font-family="'Roboto-Bold'" font-size="13.2675" rotate="-66.067">A</tspan><tspan x="70.787" y="-45.89" fill="#FFFFFF" font-family="'Roboto-Bold'" font-size="13.2675" rotate="-71.865"> </tspan><tspan x="72.155" y="-49.783" fill="#FFFFFF" font-family="'Roboto-Bold'" font-size="13.2675" rotate="-77.432">P</tspan><tspan x="74.191" y="-59.303" fill="#FFFFFF" font-family="'Roboto-Bold'" font-size="13.2675" rotate="-85.381">R</tspan><tspan x="74.909" y="-68.976" fill="#FFFFFF" font-family="'Roboto-Bold'" font-size="13.2675" rotate="-93.741">O</tspan><tspan x="74.094" y="-79.247" fill="#FFFFFF" font-family="'Roboto-Bold'" font-size="13.2675" rotate="-101.553">F</tspan><tspan x="72.379" y="-87.353" fill="#FFFFFF" font-family="'Roboto-Bold'" font-size="13.2675" rotate="-108.533">E</tspan><tspan x="69.618" y="-95.44" fill="#FFFFFF" font-family="'Roboto-Bold'" font-size="13.2675" rotate="-115.903">S</tspan><tspan x="65.49" y="-103.767" fill="#FFFFFF" font-family="'Roboto-Bold'" font-size="13.2675" rotate="-123.579">S</tspan><tspan x="60.394" y="-111.176" fill="#FFFFFF" font-family="'Roboto-Bold'" font-size="13.2675" rotate="-129.238">I</tspan><tspan x="57.446" y="-114.932" fill="#FFFFFF" font-family="'Roboto-Bold'" font-size="13.2675" rotate="-135.372">O</tspan><tspan x="49.954" y="-122.203" fill="#FFFFFF" font-family="'Roboto-Bold'" font-size="13.2675" rotate="-144.128">N</tspan><tspan x="41.274" y="-128.341" fill="#FFFFFF" font-family="'Roboto-Bold'" font-size="13.2675" rotate="-152.811">A</tspan><tspan x="32.271" y="-132.815" fill="#FFFFFF" font-family="'Roboto-Bold'" font-size="13.2675" rotate="-160.468">L</tspan></text>
<circle fill="none" cx="73.008" cy="129.907" r="57.647"/>
<circle fill="#FFFFFF" cx="13.301" cy="77.696" r="2.34"/>
<circle fill="#FFFFFF" cx="140.249" cy="77.564" r="2.34"/>
<g>
	<path fill-rule="evenodd" clip-rule="evenodd" fill="#765DA8" d="M62.923,78.424c0-0.623,0-1.246,0-1.868
		c0.018-0.091,0.047-0.179,0.053-0.27c0.134-1.937,0.592-3.795,1.448-5.531c2.5-5.076,6.545-8.101,12.134-9.039
		c0.458-0.077,0.92-0.119,1.382-0.178c0.623,0,1.247,0,1.87,0c0.079,0.019,0.158,0.048,0.237,0.053
		c2.227,0.152,4.343,0.725,6.287,1.813c5.244,2.936,8.095,7.422,8.467,13.421c0.178,2.878-0.441,5.631-1.853,8.149
		C90,90.237,85.48,93.072,79.451,93.419c-2.561,0.146-5.031-0.36-7.335-1.49c-4.901-2.402-7.893-6.297-8.942-11.663
		C63.056,79.658,63.005,79.038,62.923,78.424z M78.867,90.771c7.327,0.009,13.268-5.917,13.288-13.256
		c0.021-7.331-5.932-13.298-13.272-13.307c-7.321-0.008-13.263,5.921-13.29,13.26C65.567,84.793,71.524,90.764,78.867,90.771z"/>
	<path fill-rule="evenodd" clip-rule="evenodd" fill="#765DA8" d="M76.249,77.489c0-1.536,0.004-3.073-0.003-4.61
		c-0.001-0.38,0.078-0.703,0.442-0.888c0.366-0.187,0.676-0.051,0.979,0.17c2.114,1.542,4.232,3.077,6.346,4.617
		c0.613,0.446,0.613,1.021-0.003,1.469c-2.124,1.545-4.25,3.086-6.374,4.631c-0.297,0.217-0.608,0.325-0.955,0.147
		c-0.347-0.179-0.436-0.49-0.434-0.862C76.254,80.605,76.249,79.048,76.249,77.489z"/>
</g>
<g>
	<path fill-rule="evenodd" clip-rule="evenodd" fill="#765DA8" d="M105.58,60.266c9.264,0.061,17.234,7.789,16.979,17.706
		c-0.245,9.499-8.232,17.107-17.844,16.771c-9.557-0.336-17.074-8.439-16.638-18.068C88.487,67.645,96.158,60.045,105.58,60.266z
		 M109.313,77.502c0.188-1.874-1.605-4.104-4.165-4.05c-1.95,0.042-3.861,1.786-3.879,3.995c-0.017,2.147,1.775,4.079,4.062,4.091
		C107.528,81.55,109.489,79.496,109.313,77.502z"/>
	<path fill-rule="evenodd" clip-rule="evenodd" fill="#765DA8" d="M105.286,79.904c-1.146,0.04-2.385-0.99-2.388-2.423
		c-0.004-1.358,1.276-2.437,2.341-2.405c1.443,0.042,2.49,1.031,2.484,2.428C107.717,78.862,106.656,79.908,105.286,79.904z
		 M106.083,77.489c-0.001-0.453-0.348-0.786-0.823-0.79c-0.411-0.002-0.709,0.353-0.73,0.824c-0.018,0.374,0.381,0.76,0.78,0.759
		C105.698,78.281,106.137,77.913,106.083,77.489z"/>
</g>
<g>
	<path fill-rule="evenodd" clip-rule="evenodd" fill="#765DA8" d="M41.954,67.084c0.21,0.046,0.423,0.078,0.63,0.138
		c0.76,0.223,1.433,0.594,1.956,1.201c0.352,0.41,0.571,0.878,0.506,1.433c-0.033,0.277-0.111,0.548-0.16,0.824
		c-0.028,0.154-0.048,0.312-0.061,0.469c-0.014,0.18,0.04,0.33,0.176,0.468c0.917,0.919,1.825,1.85,2.742,2.769
		c1.652,1.657,3.312,3.307,4.958,4.969c0.192,0.193,0.401,0.259,0.646,0.245c0.198-0.011,0.395-0.055,0.591-0.089
		c0.311-0.054,0.623-0.113,0.94-0.075c0.441,0.053,0.829,0.235,1.17,0.514c0.61,0.497,1.006,1.131,1.175,1.9
		c0.028,0.132,0.034,0.268,0.051,0.401c0,0.212,0,0.425,0,0.639c-0.032,0.182-0.048,0.37-0.1,0.547
		c-0.069,0.233-0.153,0.465-0.258,0.686c-0.124,0.264-0.3,0.294-0.497,0.078c-0.167-0.186-0.303-0.4-0.44-0.609
		c-0.18-0.274-0.336-0.564-0.525-0.833c-0.168-0.238-0.395-0.415-0.7-0.459c-0.189-0.027-0.371,0.007-0.551,0.064
		c-0.374,0.121-0.708,0.307-0.975,0.603c-0.273,0.303-0.357,0.652-0.194,1.028c0.131,0.303,0.291,0.595,0.459,0.878
		c0.166,0.28,0.36,0.542,0.541,0.813c0.026,0.04,0.05,0.083,0.071,0.126c0.073,0.149,0.021,0.268-0.146,0.287
		c-0.129,0.016-0.265,0.02-0.393-0.001c-1.056-0.163-1.949-0.624-2.63-1.46c-0.387-0.473-0.467-1.019-0.348-1.604
		c0.059-0.296,0.12-0.593,0.17-0.891c0.016-0.093,0.014-0.195-0.009-0.287c-0.02-0.079-0.066-0.161-0.124-0.22
		c-0.628-0.645-1.256-1.289-1.892-1.925c-1.814-1.811-3.631-3.617-5.447-5.424c-0.172-0.171-0.358-0.326-0.527-0.499
		c-0.186-0.187-0.407-0.217-0.651-0.176c-0.301,0.052-0.603,0.101-0.905,0.149c-0.478,0.077-0.917-0.042-1.324-0.282
		c-0.826-0.489-1.315-1.223-1.518-2.152c-0.028-0.128-0.031-0.261-0.045-0.392c0-0.226,0-0.451,0-0.677
		c0.007-0.032,0.014-0.063,0.019-0.094c0.065-0.397,0.179-0.778,0.367-1.134c0.093-0.18,0.241-0.211,0.397-0.082
		c0.092,0.077,0.18,0.169,0.248,0.269c0.148,0.219,0.275,0.45,0.422,0.67c0.158,0.237,0.316,0.479,0.497,0.698
		c0.21,0.252,0.492,0.377,0.825,0.325c0.498-0.077,0.921-0.3,1.26-0.674c0.289-0.319,0.361-0.677,0.192-1.081
		c-0.172-0.414-0.42-0.782-0.667-1.15c-0.135-0.204-0.267-0.41-0.393-0.62c-0.068-0.113-0.018-0.221,0.108-0.267
		c0.036-0.013,0.074-0.021,0.11-0.033C41.787,67.084,41.871,67.084,41.954,67.084z"/>
</g>
<circle fill-rule="evenodd" clip-rule="evenodd" fill="none" stroke="#765DA8" stroke-width="2" stroke-miterlimit="10" cx="48.544" cy="76.194" r="15.363"/>
</svg>
